<?xml version="1.0" encoding="UTF-8" standalone="no"?>
<!-- Generator: Adobe Illustrator 16.0.4, SVG Export Plug-In . SVG Version: 6.00 Build 0)  -->

<svg
   xmlns:dc="http://purl.org/dc/elements/1.1/"
   xmlns:cc="http://creativecommons.org/ns#"
   xmlns:rdf="http://www.w3.org/1999/02/22-rdf-syntax-ns#"
   xmlns:svg="http://www.w3.org/2000/svg"
   xmlns="http://www.w3.org/2000/svg"
   xmlns:sodipodi="http://sodipodi.sourceforge.net/DTD/sodipodi-0.dtd"
   xmlns:inkscape="http://www.inkscape.org/namespaces/inkscape"
   version="1.1"
   id="Layer_2_2_"
   x="0px"
   y="0px"
   width="4096"
   height="4096"
   viewBox="0 0 4096 4096"
   enable-background="new 0 0 62 62"
   xml:space="preserve"
   sodipodi:docname="starbucks-logo.svg"
   inkscape:export-filename="G:\Users\suitedoalex\sites\starbucks-logo-0.png"
   inkscape:export-xdpi="96"
   inkscape:export-ydpi="96"
   inkscape:version="0.92.2 (5c3e80d, 2017-08-06)"><metadata
     id="metadata19"><rdf:RDF><cc:Work
         rdf:about=""><dc:format>image/svg+xml</dc:format><dc:type
           rdf:resource="http://purl.org/dc/dcmitype/StillImage" /><dc:title></dc:title></cc:Work></rdf:RDF></metadata><defs
     id="defs17" /><sodipodi:namedview
     pagecolor="#ffffff"
     bordercolor="#666666"
     borderopacity="1"
     objecttolerance="10"
     gridtolerance="10"
     guidetolerance="10"
     inkscape:pageopacity="0"
     inkscape:pageshadow="2"
     inkscape:window-width="1600"
     inkscape:window-height="837"
     id="namedview15"
     showgrid="false"
     inkscape:zoom="0.084111492"
     inkscape:cx="-1364.171"
     inkscape:cy="1491.5479"
     inkscape:window-x="-8"
     inkscape:window-y="-8"
     inkscape:window-maximized="1"
     inkscape:current-layer="Layer_2_2_" /><circle
     cx="2048"
     cy="2045.1393"
     r="1519.1082"
     id="circle2"
     style="fill:#ffffff;stroke-width:50.633564" /><path
     d="m 2200.7614,1182.799 c -13.3165,-2.3797 -77.5199,-13.1647 -152.7614,-13.1647 -75.2414,0 -139.4448,10.7343 -152.7615,13.1647 -7.6456,1.3671 -10.5823,-6.1267 -4.7595,-10.4811 5.2659,-3.8988 157.4704,-119.7484 157.4704,-119.7484 0,0 152.2552,115.9002 157.4197,119.7484 5.9242,4.3544 3.0381,11.8482 -4.6077,10.4811 z m -262.9907,752.2123 c 0,0 -8.0507,2.8861 -10.1773,9.9747 31.8991,24.5067 53.8741,80.2543 120.4066,80.2543 66.5325,0 88.5074,-55.7476 120.356,-80.2543 -2.076,-7.1393 -10.1267,-9.9747 -10.1267,-9.9747 0,0 -41.6714,9.8228 -110.2293,9.8228 -68.5578,0 -110.2293,-9.8228 -110.2293,-9.8228 z M 2048,1841.1872 c -18.4812,0 -22.5319,-6.9874 -35.1397,-6.9367 -12.0002,0.05 -35.2916,9.6203 -40.355,18.3799 0.3545,4.4558 1.9747,8.4558 5.2153,12.0002 26.9371,4.0507 39.0892,19.0382 70.3301,19.0382 31.2409,0 43.3423,-14.9875 70.33,-19.0382 3.1392,-3.5444 4.8608,-7.4937 5.2152,-12.0002 -5.0127,-8.7596 -28.3547,-18.2787 -40.4055,-18.3799 -12.6585,0 -16.7598,6.9367 -35.1904,6.9367 z m 1516.7791,287.2442 c -1.9241,36.3043 -5.1647,72.3048 -9.6204,107.9001 -171.9516,28.4561 -233.4208,-124.761 -409.5749,-117.0647 10.5318,37.3676 19.0888,75.444 25.6712,114.3305 145.2676,0 203.8001,135.698 365.4224,115.6977 -8.5064,41.5195 -18.7344,82.4821 -30.5321,122.837 -127.799,12.5572 -172.8123,-114.4317 -320.7129,-110.938 1.2152,21.0635 1.8735,42.3296 1.8735,63.7982 0,11.8483 -0.2533,23.7472 -0.6077,35.4941 126.0776,-1.4683 167.0907,115.0901 287.1936,109.5711 -15.0382,40.8612 -31.8485,80.8111 -50.1778,119.9509 -86.3303,-4.7596 -116.1028,-115.4951 -247.4463,-106.6849 -3.9495,28.4055 -8.9621,56.4564 -14.9369,84.153 114.0775,-8.0001 138.6347,97.0139 220.3573,105.5204 -20.8104,37.9751 -43.2411,74.9376 -67.0895,110.938 -48.4057,-25.9243 -90.3809,-104.1531 -182.1795,-108.9634 9.4178,-29.0636 17.6711,-58.5324 24.6585,-88.5074 -81.4188,0 -174.5339,-31.7473 -252.6109,-102.8368 25.3168,-144.1032 -198.3317,-290.8392 -198.3317,-396.3595 0,-114.6344 57.9755,-178.0783 57.9755,-332.6119 0,-114.685 -55.6969,-239.0917 -139.698,-324.1054 -16.2533,-16.5066 -32.9118,-29.8739 -52.0513,-41.874 77.1656,95.4949 136.4068,208.7115 136.4068,339.8524 0,145.5209 -67.6971,222.3321 -67.6971,356.6629 0,134.2802 196.4582,250.4843 196.4582,388.967 0,54.4817 -17.4178,107.6976 -74.8363,212.2052 88.2036,88.1024 203.0912,136.1537 277.2187,136.1537 24.051,0 36.9626,-7.3419 45.5702,-26.2281 7.3925,-16.3041 14.4306,-32.8106 21.0636,-49.469 79.8491,3.0886 116.4065,75.6465 160.6096,104.6089 -24.2534,32.5574 -49.7221,64.0008 -76.406,94.4316 -29.6206,-32.8106 -69.4186,-88.0012 -127.6979,-103.3431 -10.4304,20.2534 -21.4685,40.2536 -33.0637,59.8488 50.1779,13.6711 84.5074,64.3047 111.09,97.6215 -28.6585,29.6713 -58.4817,58.1274 -89.5201,85.4695 -19.3926,-30.1776 -49.5702,-68.4566 -83.3935,-89.115 -12.5064,16.9116 -25.5193,33.4181 -38.9371,49.469 28.7598,19.4939 54.1273,54.5829 70.6844,83.1909 -35.8486,28.7598 -72.9124,56.0513 -111.2925,81.5706 -18.937,-154.2804 -229.522,-260.0033 -172.7618,-438.9929 -18.6332,31.5447 -40.8613,70.9882 -40.8613,118.4825 0,129.5713 138.0271,232.4081 149.0146,361.1692 -28.608,17.1141 -57.8741,33.2156 -87.6973,48.4564 -4.9621,-141.5209 -151.0906,-296.409 -151.0906,-412.5623 0,-129.6726 169.825,-259.9021 169.825,-412.9674 0,-153.1665 -195.9519,-259.1932 -195.9519,-393.6759 0,-134.3815 83.3428,-211.699 83.3428,-383.9544 0,-126.1788 -59.9501,-253.8767 -152.5589,-335.4473 -16.4052,-14.4812 -32.5574,-25.975 -51.9501,-36.0511 87.3429,104.7608 137.9765,199.8001 137.9765,344.0045 0,161.9767 -95.4949,251.9019 -95.4949,410.4862 0,158.635 192.3063,246.8387 192.3063,394.6886 0,147.85 -178.9896,272.4592 -178.9896,424.36 0,138.179 157.7742,276.1048 160.1033,440.0562 -34.4815,15.0382 -69.6212,28.7599 -105.3684,41.2158 20.0508,-165.6225 -157.5211,-336.4601 -157.5211,-471.601 0,-147.7488 185.6733,-274.7378 185.6733,-434.031 0,-159.3944 -188.7619,-233.4714 -188.7619,-397.0684 0,-163.4957 115.7989,-254.0285 115.7989,-434.6891 0,-140.812 -69.5198,-267.4464 -171.0908,-345.9285 -2.1772,-1.6709 -4.3038,-3.2405 -6.4305,-4.8608 -9.5697,-7.0887 -17.4685,1.4684 -10.6836,9.8735 71.8997,89.7734 110.3305,180.5593 110.3305,314.9914 0,165.268 -133.0144,299.5482 -133.0144,459.6515 0,188.9645 178.6353,242.9904 178.6353,398.0304 0,154.9894 -191.5468,278.991 -191.5468,443.5501 0,152.6095 181.2682,321.9788 150.1792,498.1329 -36.355,9.4179 -73.2162,17.6205 -110.6344,24.3042 34.0258,-219.3447 -143.7993,-376.8656 -143.7993,-520.3612 0,-155.3437 198.3823,-293.8266 198.3823,-445.626 0,-143.1916 -142.3816,-189.9771 -161.116,-336.46 -2.5824,-20.0002 -18.6331,-34.8359 -40.76,-31.1397 -28.9118,5.2659 -65.9755,24.3041 -124.2041,24.3041 -58.2286,0 -95.2924,-19.0888 -124.2548,-24.3041 -22.0762,-3.6456 -38.1271,11.1901 -40.7094,31.1397 -18.6838,146.4829 -161.1667,193.2177 -161.1667,336.46 0,151.7994 198.433,290.2317 198.433,445.626 0,143.4956 -177.825,301.0165 -143.8499,520.3612 -37.3676,-6.7343 -74.2795,-14.9369 -110.6343,-24.3042 -31.0891,-176.1541 150.2297,-345.5234 150.2297,-498.1329 0,-164.5591 -191.5975,-288.5607 -191.5975,-443.5501 0,-155.04 178.6859,-209.0659 178.6859,-398.0304 0,-160.1033 -133.065,-294.3329 -133.065,-459.6515 0,-134.3814 38.4309,-225.1674 110.3812,-314.9914 6.7343,-8.4051 -1.114,-16.9622 -10.7343,-9.8735 -2.1266,1.5696 -4.2532,3.1899 -6.3799,4.8608 -101.4696,78.2795 -170.9389,204.914 -170.9389,345.726 0,180.6605 115.799,271.1933 115.799,434.6891 0,163.5464 -188.762,237.6233 -188.762,397.0684 0,159.2932 185.6734,286.2821 185.6734,434.031 0,135.1915 -177.572,305.9785 -157.4704,471.601 -35.798,-12.456 -70.9377,-26.2283 -105.4192,-41.2158 2.3799,-163.9515 160.0528,-301.9279 160.0528,-440.0563 0,-151.9007 -178.8884,-276.5099 -178.8884,-424.3599 0,-147.85 192.205,-236.0537 192.205,-394.6886 0,-158.5843 -95.4442,-248.5096 -95.4442,-410.4863 0,-144.2044 50.5829,-239.2436 137.9258,-344.0045 -19.4434,10.0761 -35.5448,21.5699 -51.8995,36.0512 -92.6087,81.5706 -152.5083,209.2685 -152.5083,335.4473 0,172.2554 83.3429,249.5728 83.3429,383.9544 0,134.4827 -195.9519,240.5094 -195.9519,393.6759 0,153.0653 169.825,283.3454 169.825,412.9673 0,116.2041 -146.2297,271.0922 -151.1412,412.5623 -29.8231,-15.2407 -59.0894,-31.3422 -87.6973,-48.4563 11.0381,-128.7612 149.0145,-231.5979 149.0145,-361.1692 0,-47.4943 -22.1775,-86.9379 -40.8612,-118.4826 56.7602,178.9897 -153.8248,284.7126 -172.7617,438.993 -38.3803,-25.5193 -75.4947,-52.8108 -111.2926,-81.5707 16.5065,-28.5573 41.8739,-63.697 70.6844,-83.1909 -13.4685,-16.0002 -26.4307,-32.5573 -38.9372,-49.4689 -33.8739,20.6584 -64.102,58.9374 -83.4441,89.115 -30.9371,-27.2915 -60.81089,-55.7982 -89.46949,-85.4695 26.58263,-33.3168 60.91219,-83.9504 111.08999,-97.6215 -11.595,-19.5952 -22.6331,-39.5448 -33.0637,-59.8489 -58.2792,15.342 -98.12781,70.5326 -127.69781,103.3431 -26.68389,-30.4814 -52.20321,-61.9248 -76.40605,-94.4315 44.2031,-28.9624 80.76053,-101.5709 160.55903,-104.609 6.68363,16.6078 13.72173,33.1144 21.11423,49.469 8.6077,18.8863 21.5699,26.2282 45.5702,26.2282 74.1275,0 188.9644,-48.0513 277.2188,-136.1537 -57.4185,-104.5076 -74.8365,-157.7235 -74.8365,-212.2052 0,-138.4322 196.4582,-254.6362 196.4582,-388.967 0,-134.3309 -67.6971,-211.142 -67.6971,-356.6629 0,-131.1409 59.2414,-244.3576 136.4069,-339.8525 -19.1395,12.0002 -35.7979,25.3675 -52.0513,41.874 -84.0011,85.0644 -139.698,209.4204 -139.698,324.1055 0,154.5336 58.026,217.9774 58.026,332.6119 0,105.5202 -223.699,252.2563 -198.3823,396.3595 -78.0769,71.0895 -171.192,102.8368 -252.66143,102.8368 7.0887,29.975 15.34197,59.4437 24.65854,88.5074 -91.74801,4.8608 -133.72324,83.0897 -182.17956,108.9634 -23.89904,-36.0004 -46.27907,-72.963 -67.08946,-110.9381 81.67193,-8.5064 106.27985,-113.5204 220.40789,-105.5204 -5.97476,-27.6965 -11.03811,-55.7982 -14.98753,-84.153 -131.34346,-8.8102 -161.116,101.9761 -247.44623,106.685 -18.32934,-39.1398 -35.13968,-79.0897 -50.17785,-119.9509 120.15344,5.519 161.11599,-111.0394 287.2442,-109.5711 -0.35443,-11.7469 -0.6076,-23.6459 -0.6076,-35.4941 0,-21.4686 0.65824,-42.7348 1.82281,-63.7983 -147.90064,-3.4431 -192.91388,123.4953 -320.713,110.9381 -11.74698,-40.3549 -22.0256,-81.2668 -30.4814,-122.837 161.52107,20.0002 220.1041,-115.7989 365.42243,-115.6977 6.58236,-38.8865 15.13943,-76.963 25.62058,-114.3306 -176.15416,-7.6456 -237.62332,145.5715 -409.52426,117.0648 -4.50639,-35.5953 -7.6963,-71.5959 -9.62038,-107.9001 199.85068,22.3294 274.78835,-141.9765 456.76538,-121.875 17.16477,-43.4942 37.11437,-85.5707 59.59567,-126.0775 C 819.37659,1840.1746 741.90725,2030.9618 529.55008,2001.645 552.48708,1182.8496 1223.5337,526.03105 2048,526.03105 c 824.4663,0 1495.5129,656.81855 1518.4499,1475.81645 -212.4077,29.3169 -289.8771,-161.4198 -517.9813,-121.3686 22.4307,40.5069 42.3803,82.5833 59.5957,126.0775 181.8757,-20.1521 256.8135,144.2044 456.7148,121.875 z m -2169.7495,-637.122 c -111.8495,-45.7222 -247.2437,-35.1904 -362.8908,39.089 -17.9242,-107.5963 -76.30475,-203.1925 -159.44506,-260.8641 -11.49382,-7.9495 -23.44334,-0.5064 -22.38004,12.9115 17.56985,227.3448 -115.34326,424.765 -278.7884,598.2862 168.45787,50.6336 311.85212,-166.2806 530.3359,-90.5834 78.3808,-116.7104 177.9264,-218.1294 293.1684,-298.8392 z M 2048,1353.7886 c -141.0144,0 -259.1426,79.7478 -290.0796,182.7871 -2.3799,7.8989 0.8607,13.0129 9.9747,8.9116 25.3675,-11.3926 54.2285,-16.861 85.5708,-16.861 57.5197,0 108.2038,21.1142 138.179,57.8741 13.2659,43.7475 14.3799,107.09 -0.6076,143.2424 -23.6965,-5.3165 -32.203,-23.6459 -55.3425,-23.6459 -23.1396,0 -41.0639,16.2534 -80.3048,16.2534 -39.1904,0 -43.7981,-18.5319 -69.5706,-18.5319 -30.3295,0 -35.8992,31.2409 -35.8992,66.4818 0,157.116 144.4069,373.3214 298.0292,373.3214 153.5715,0 297.9785,-216.2054 297.9785,-373.3214 0,-35.2409 -7.2406,-65.4185 -38.9372,-69.5198 -15.7977,11.3926 -30.3296,21.5699 -66.4819,21.5699 -39.241,0 -50.0766,-16.2534 -73.1655,-16.2534 -27.8991,0 -25.1142,58.8362 -58.2286,62.1273 -22.0763,-53.0639 -23.1395,-121.1154 -4.8102,-181.7238 30.0257,-36.7599 80.6593,-57.8741 138.179,-57.8741 31.3422,0 60.4059,5.519 85.5201,16.861 9.1647,4.1013 12.3546,-1.0634 9.9748,-8.9116 C 2307.0919,1433.5364 2189.0145,1353.7886 2048,1353.7886 Z m 224.5092,225.4206 c -33.8232,0 -73.4692,10.3799 -98.381,38.1271 -2.5823,7.5444 -2.5823,18.785 1.0634,26.2787 61.3172,-21.0129 115.3938,-21.823 141.5208,7.3926 13.9242,-12.6584 18.38,-24.0509 18.38,-37.2664 0,-20.4053 -20.7598,-34.532 -62.5832,-34.532 z m -493.2215,71.7984 c 29.57,-29.6206 91.8999,-28.3549 156.6602,-4.4557 2.8356,-32.203 -54.8362,-67.3934 -112.4571,-67.3934 -41.8739,0 -62.5831,14.1268 -62.5831,34.5827 0,13.2155 4.4558,24.6587 18.38,37.2664 z m 971.8606,-531.855 c -111.3432,7.9495 -208.0533,46.1778 -286.2822,109.8748 33.2156,-94.1784 75.3934,-176.5592 128.8624,-256.40831 -141.7739,15.03815 -260.3071,66.88691 -346.7892,155.49561 L 2179.2422,950.64416 2329.5226,817.93358 2128.3048,803.70555 2048,616.56387 l -80.3555,187.14168 -201.2178,14.22803 150.2805,132.71058 -67.6465,177.47054 c -86.5328,-88.6087 -205.0659,-140.45746 -346.7386,-155.49561 53.3678,79.89971 95.5455,162.28051 128.7611,256.40831 -78.1782,-63.7476 -174.8883,-101.9759 -286.2315,-109.8748 66.7856,85.8746 125.9763,177.42 169.825,275.8516 4.9621,11.0889 15.5952,14.7344 27.089,9.0129 152.5083,-75.7985 324.3585,-118.4319 506.1837,-118.4319 181.8251,0 353.6248,42.6841 506.2343,118.4319 11.4939,5.7215 22.1269,2.076 27.0384,-9.0129 43.8993,-98.4316 103.0899,-189.977 169.9262,-275.8516 z m 243.0918,671.0973 c 218.3825,-75.6972 361.8274,141.1663 530.2852,90.5835 -163.4451,-173.5213 -296.3076,-370.9416 -278.7377,-598.2863 1.0633,-13.3166 -10.9368,-20.9116 -22.38,-12.9116 -83.191,57.6718 -141.5715,153.2679 -159.4451,260.8642 -115.6977,-74.2794 -251.0412,-84.8619 -362.8908,-39.0891 115.0901,80.6086 214.6863,182.0276 293.1684,298.8393 z"
     id="path4"
     inkscape:connector-curvature="0"
     style="fill:#006341;stroke-width:50.633564" /><rect
     x="2868.9221"
     y="3550.7834"
     width="182.48337"
     height="13.367261"
     id="rect6"
     style="fill:none;stroke-width:50.633564" /><g
     id="g12"
     transform="matrix(50.633563,0,0,50.633563,478.35954,475.49875)"><path
       d="m 53.595,57.01 h -1.526 v 4.105 H 51.522 V 57.01 H 50 V 56.5 h 3.595 z"
       id="path8"
       inkscape:connector-curvature="0"
       style="fill:#006341" /><path
       d="m 54.236,56.5 h 0.811 l 1.57,3.618 h 0.011 L 58.202,56.5 H 59 v 4.615 h -0.551 v -3.869 h -0.012 l -1.653,3.869 h -0.333 l -1.659,-3.869 h -0.011 v 3.869 h -0.545 z"
       id="path10"
       inkscape:connector-curvature="0"
       style="fill:#006341" /></g></svg>